STARTFONT 2.1
FONT -FontForge-Trek-Book-R-Normal--31-300-75-75-P-111-ISO10646-1
SIZE 30 75 75
FONTBOUNDINGBOX 24 27 -1 -5
COMMENT "Generated by fontforge, http://fontforge.sourceforge.net"
COMMENT "Unknown"
STARTPROPERTIES 39
FOUNDRY "FontForge"
FAMILY_NAME "Trek"
WEIGHT_NAME "Book"
SLANT "R"
SETWIDTH_NAME "Normal"
ADD_STYLE_NAME ""
PIXEL_SIZE 31
POINT_SIZE 300
RESOLUTION_X 75
RESOLUTION_Y 75
SPACING "P"
AVERAGE_WIDTH 111
CHARSET_REGISTRY "ISO10646"
CHARSET_ENCODING "1"
FONTNAME_REGISTRY ""
CHARSET_COLLECTIONS "ISO10646-1"
FONT_NAME "TrekClassicCredits"
FACE_NAME "Trek Classic Credits"
COPYRIGHT "Unknown"
FONT_VERSION "v1.0"
FONT_ASCENT 25
FONT_DESCENT 6
UNDERLINE_POSITION -3
UNDERLINE_THICKNESS 2
X_HEIGHT 16
CAP_HEIGHT 21
RAW_ASCENT 799
RAW_DESCENT 200
NORM_SPACE 8
RELATIVE_WEIGHT 40
RELATIVE_SETWIDTH 30
SUPERSCRIPT_X 0
SUPERSCRIPT_Y 0
SUPERSCRIPT_SIZE 0
SUBSCRIPT_X 0
SUBSCRIPT_Y 0
SUBSCRIPT_SIZE 0
AVG_LOWERCASE_WIDTH 111
AVG_UPPERCASE_WIDTH 118
ENDPROPERTIES
CHARS 88
STARTCHAR space
ENCODING 32
SWIDTH 250 0
DWIDTH 8 0
BBX 1 1 0 0
BITMAP
00
ENDCHAR
STARTCHAR exclam
ENCODING 33
SWIDTH 214 0
DWIDTH 7 0
BBX 4 22 1 0
BITMAP
F0
F0
F0
F0
F0
F0
F0
F0
F0
F0
F0
F0
F0
F0
F0
F0
F0
00
F0
F0
F0
F0
ENDCHAR
STARTCHAR quotedbl
ENCODING 34
SWIDTH 331 0
DWIDTH 10 0
BBX 8 8 1 14
BITMAP
E7
E7
E7
E7
E7
E7
E7
E7
ENDCHAR
STARTCHAR numbersign
ENCODING 35
SWIDTH 735 0
DWIDTH 23 0
BBX 22 22 1 0
BITMAP
007870
007070
007070
00F0E0
00E0E0
00E0E0
01C0C0
1FFFFC
3FFFF8
038380
038380
030380
070700
070700
7FFFF0
FFFFE0
0C0E00
1C1C00
1C1C00
183800
383800
387800
ENDCHAR
STARTCHAR dollar
ENCODING 36
SWIDTH 394 0
DWIDTH 12 0
BBX 10 23 1 -1
BITMAP
0C00
0C00
7F80
FFC0
FFC0
E180
E100
E040
E3C0
EFC0
FFC0
FFC0
FDC0
F1C0
81C0
21C0
61C0
FFC0
FFC0
7F80
0C00
0C00
0C00
ENDCHAR
STARTCHAR percent
ENCODING 37
SWIDTH 754 0
DWIDTH 23 0
BBX 21 22 1 0
BITMAP
7F0780
FF8700
FF8700
E38E00
E38E00
E39C00
E39C00
E39800
E3B800
E3BFF0
FFFFF8
FFFFF8
7FEE38
00EE38
00CE38
01CE38
01CE38
038E38
038E38
070FF8
070FF8
0F07F0
ENDCHAR
STARTCHAR ampersand
ENCODING 38
SWIDTH 395 0
DWIDTH 12 0
BBX 11 22 1 0
BITMAP
7F80
FFC0
FFC0
E1C0
E100
E000
F000
F000
7000
F000
E020
E1E0
E3E0
E3C0
E3C0
E3C0
E1C0
E1C0
E1C0
FFC0
FFC0
7F80
ENDCHAR
STARTCHAR quotesingle
ENCODING 39
SWIDTH 171 0
DWIDTH 5 0
BBX 3 8 1 14
BITMAP
E0
E0
E0
E0
E0
E0
E0
E0
ENDCHAR
STARTCHAR parenleft
ENCODING 40
SWIDTH 279 0
DWIDTH 9 0
BBX 6 26 2 -4
BITMAP
7C
FC
FC
E0
E0
E0
E0
E0
E0
E0
E0
E0
E0
E0
E0
E0
E0
E0
E0
E0
E0
E0
E0
FC
FC
7C
ENDCHAR
STARTCHAR parenright
ENCODING 41
SWIDTH 279 0
DWIDTH 9 0
BBX 6 26 1 -4
BITMAP
F8
FC
FC
1C
1C
1C
1C
1C
1C
1C
1C
1C
1C
1C
1C
1C
1C
1C
1C
1C
1C
1C
1C
FC
FC
F8
ENDCHAR
STARTCHAR asterisk
ENCODING 42
SWIDTH 300 0
DWIDTH 9 0
BBX 8 8 1 14
BITMAP
18
99
FF
3C
3C
FF
99
18
ENDCHAR
STARTCHAR plus
ENCODING 43
SWIDTH 556 0
DWIDTH 17 0
BBX 15 15 1 0
BITMAP
0380
0380
0380
0380
0380
0380
FFFE
FFFE
FFFE
0380
0380
0380
0380
0380
0380
ENDCHAR
STARTCHAR comma
ENCODING 44
SWIDTH 196 0
DWIDTH 6 0
BBX 4 6 1 -2
BITMAP
F0
F0
F0
F0
70
60
ENDCHAR
STARTCHAR hyphen
ENCODING 45
SWIDTH 291 0
DWIDTH 9 0
BBX 6 6 1 6
BITMAP
04
1C
7C
F8
E0
80
ENDCHAR
STARTCHAR period
ENCODING 46
SWIDTH 196 0
DWIDTH 6 0
BBX 4 4 1 0
BITMAP
F0
F0
F0
F0
ENDCHAR
STARTCHAR slash
ENCODING 47
SWIDTH 285 0
DWIDTH 9 0
BBX 10 24 -1 -2
BITMAP
01C0
03C0
0380
0380
0780
0780
0700
0700
0F00
0E00
0E00
1E00
1E00
1C00
1C00
3C00
3C00
3800
3800
7800
7000
7000
F000
F000
ENDCHAR
STARTCHAR zero
ENCODING 48
SWIDTH 394 0
DWIDTH 12 0
BBX 10 22 1 0
BITMAP
7F80
FFC0
FFC0
E1C0
E1C0
E1C0
E1C0
E1C0
E1C0
E1C0
E1C0
E1C0
E1C0
E1C0
E1C0
E1C0
E1C0
E1C0
E1C0
FFC0
FFC0
7F80
ENDCHAR
STARTCHAR one
ENCODING 49
SWIDTH 264 0
DWIDTH 8 0
BBX 6 22 0 0
BITMAP
1C
7C
FC
FC
FC
9C
1C
1C
1C
1C
1C
1C
1C
1C
1C
1C
1C
1C
1C
1C
1C
1C
ENDCHAR
STARTCHAR two
ENCODING 50
SWIDTH 395 0
DWIDTH 12 0
BBX 10 22 1 0
BITMAP
7F80
FFC0
FFC0
E1C0
E1C0
C1C0
81C0
01C0
03C0
0FC0
7F80
FF00
FC00
E000
E000
E000
E000
E000
E000
FFC0
FFC0
FFC0
ENDCHAR
STARTCHAR three
ENCODING 51
SWIDTH 395 0
DWIDTH 12 0
BBX 10 22 1 0
BITMAP
7F80
FFC0
FFC0
E1C0
E1C0
C1C0
81C0
03C0
0FC0
1FC0
1FC0
1FC0
11C0
01C0
01C0
01C0
21C0
E1C0
E1C0
FFC0
FFC0
7F80
ENDCHAR
STARTCHAR four
ENCODING 52
SWIDTH 395 0
DWIDTH 12 0
BBX 10 22 1 0
BITMAP
E000
E000
E000
E000
E040
E0C0
E1C0
E1C0
E1C0
E1C0
E3C0
FFC0
FFC0
FFC0
FDC0
F1C0
C1C0
01C0
01C0
01C0
01C0
01C0
ENDCHAR
STARTCHAR five
ENCODING 53
SWIDTH 394 0
DWIDTH 12 0
BBX 10 22 1 0
BITMAP
FFC0
FFC0
FFC0
E000
E000
E040
E1C0
E7C0
FFC0
FFC0
FFC0
FDC0
F1C0
C1C0
81C0
01C0
21C0
61C0
E1C0
FFC0
FFC0
7F80
ENDCHAR
STARTCHAR six
ENCODING 54
SWIDTH 394 0
DWIDTH 12 0
BBX 10 22 1 0
BITMAP
7F80
FFC0
FFC0
E1C0
E180
E100
E040
E1C0
E7C0
FFC0
FFC0
FFC0
FFC0
F1C0
E1C0
E1C0
E1C0
E1C0
E1C0
FFC0
FFC0
7F80
ENDCHAR
STARTCHAR seven
ENCODING 55
SWIDTH 339 0
DWIDTH 11 0
BBX 9 22 0 0
BITMAP
FF80
FF80
FF80
0780
0700
0700
0F00
0F00
0E00
0E00
1E00
1C00
1C00
1C00
1C00
1C00
1C00
1C00
1C00
1C00
1C00
1C00
ENDCHAR
STARTCHAR eight
ENCODING 56
SWIDTH 395 0
DWIDTH 12 0
BBX 10 22 1 0
BITMAP
7F80
FFC0
FFC0
E1C0
E1C0
E1C0
E1C0
E1C0
E3C0
FFC0
FF80
FFC0
FDC0
E1C0
E1C0
E1C0
E1C0
E1C0
E1C0
FFC0
FFC0
7F80
ENDCHAR
STARTCHAR nine
ENCODING 57
SWIDTH 394 0
DWIDTH 12 0
BBX 10 22 1 0
BITMAP
7F80
FFC0
FFC0
E1C0
E1C0
E1C0
E1C0
E1C0
E3C0
FFC0
FFC0
FFC0
FFC0
F9C0
E1C0
81C0
21C0
61C0
E1C0
FFC0
FFC0
7F80
ENDCHAR
STARTCHAR colon
ENCODING 58
SWIDTH 206 0
DWIDTH 6 0
BBX 4 14 1 0
BITMAP
F0
F0
F0
F0
00
00
00
00
00
00
F0
F0
F0
F0
ENDCHAR
STARTCHAR semicolon
ENCODING 59
SWIDTH 206 0
DWIDTH 6 0
BBX 4 16 1 -2
BITMAP
F0
F0
F0
F0
00
00
00
00
00
00
F0
F0
F0
F0
70
60
ENDCHAR
STARTCHAR equal
ENCODING 61
SWIDTH 556 0
DWIDTH 17 0
BBX 14 9 1 3
BITMAP
FFFC
FFFC
FFFC
0000
0000
0000
FFFC
FFFC
FFFC
ENDCHAR
STARTCHAR question
ENCODING 63
SWIDTH 379 0
DWIDTH 12 0
BBX 10 22 1 0
BITMAP
7F80
FFC0
FFC0
E1C0
E1C0
C1C0
81C0
03C0
0FC0
1F80
1F00
1E00
1E00
1E00
1E00
1E00
1E00
0000
1E00
1E00
1E00
1E00
ENDCHAR
STARTCHAR A
ENCODING 65
SWIDTH 395 0
DWIDTH 12 0
BBX 10 22 1 0
BITMAP
7F80
FFC0
FFC0
E1C0
E1C0
E1C0
E1C0
E1C0
E1C0
EFC0
FFC0
FFC0
FFC0
F1C0
E1C0
E1C0
E1C0
E1C0
E1C0
E1C0
E1C0
E1C0
ENDCHAR
STARTCHAR B
ENCODING 66
SWIDTH 395 0
DWIDTH 12 0
BBX 10 22 1 0
BITMAP
FF80
FFC0
FFC0
E1C0
E1C0
E1C0
E1C0
E1C0
EFC0
FF80
FFC0
FFC0
F1C0
E1C0
E1C0
E1C0
E1C0
E1C0
E1C0
FFC0
FFC0
FF80
ENDCHAR
STARTCHAR C
ENCODING 67
SWIDTH 394 0
DWIDTH 12 0
BBX 10 22 1 0
BITMAP
7F80
FFC0
FFC0
E1C0
E1C0
E1C0
E180
E200
E000
E000
E000
E000
E000
E000
E040
E0C0
E1C0
E1C0
E1C0
FFC0
FFC0
7F80
ENDCHAR
STARTCHAR D
ENCODING 68
SWIDTH 395 0
DWIDTH 12 0
BBX 10 22 1 0
BITMAP
FF80
FFC0
FFC0
E1C0
E1C0
E1C0
E1C0
E1C0
E1C0
E1C0
E1C0
E1C0
E1C0
E1C0
E1C0
E1C0
E1C0
E1C0
E1C0
FFC0
FFC0
FF80
ENDCHAR
STARTCHAR E
ENCODING 69
SWIDTH 345 0
DWIDTH 11 0
BBX 8 22 1 0
BITMAP
FF
FF
FF
E0
E0
E0
E1
E3
EF
FF
FF
FC
F0
E0
E0
E0
E0
E0
E0
FF
FF
FF
ENDCHAR
STARTCHAR F
ENCODING 70
SWIDTH 333 0
DWIDTH 10 0
BBX 8 22 1 0
BITMAP
FF
FF
FF
E0
E0
E0
E1
E3
EF
FF
FF
FC
F0
E0
E0
E0
E0
E0
E0
E0
E0
E0
ENDCHAR
STARTCHAR G
ENCODING 71
SWIDTH 395 0
DWIDTH 12 0
BBX 10 22 1 0
BITMAP
7F80
FFC0
FFC0
E1C0
E1C0
E1C0
E180
E100
E040
E1C0
E7C0
EFC0
EFC0
EFC0
EDC0
E1C0
E1C0
E1C0
E1C0
FFC0
FFC0
7FC0
ENDCHAR
STARTCHAR H
ENCODING 72
SWIDTH 395 0
DWIDTH 12 0
BBX 10 22 1 0
BITMAP
E1C0
E1C0
E1C0
E1C0
E1C0
E1C0
E1C0
E1C0
EFC0
FFC0
FFC0
FFC0
F1C0
E1C0
E1C0
E1C0
E1C0
E1C0
E1C0
E1C0
E1C0
E1C0
ENDCHAR
STARTCHAR I
ENCODING 73
SWIDTH 198 0
DWIDTH 6 0
BBX 3 22 1 0
BITMAP
E0
E0
E0
E0
E0
E0
E0
E0
E0
E0
E0
E0
E0
E0
E0
E0
E0
E0
E0
E0
E0
E0
ENDCHAR
STARTCHAR J
ENCODING 74
SWIDTH 372 0
DWIDTH 12 0
BBX 10 22 1 0
BITMAP
01C0
01C0
01C0
01C0
01C0
01C0
01C0
01C0
01C0
01C0
01C0
01C0
01C0
01C0
21C0
E1C0
E1C0
E1C0
E1C0
FFC0
FFC0
7F80
ENDCHAR
STARTCHAR K
ENCODING 75
SWIDTH 399 0
DWIDTH 12 0
BBX 11 22 1 0
BITMAP
E3C0
E380
E780
E780
EF00
EF00
EE00
FE00
FC00
FC00
FE00
FE00
FE00
FF00
F700
E700
E380
E380
E3C0
E1C0
E1C0
E1E0
ENDCHAR
STARTCHAR L
ENCODING 76
SWIDTH 318 0
DWIDTH 10 0
BBX 8 22 1 0
BITMAP
E0
E0
E0
E0
E0
E0
E0
E0
E0
E0
E0
E0
E0
E0
E0
E0
E0
E0
E0
FF
FF
FF
ENDCHAR
STARTCHAR M
ENCODING 77
SWIDTH 590 0
DWIDTH 18 0
BBX 17 22 1 0
BITMAP
7F7F00
FF7F80
FFFF80
E1C380
E1C380
E1C380
E1C380
E1C380
E1C380
E1C380
E1C380
E1C380
E1C380
E1C380
E1C380
E1C380
E1C380
E1C380
E1C380
E1C380
E1C380
E1C380
ENDCHAR
STARTCHAR N
ENCODING 78
SWIDTH 395 0
DWIDTH 12 0
BBX 10 22 1 0
BITMAP
EF80
FFC0
FFC0
E1C0
E1C0
E1C0
E1C0
E1C0
E1C0
E1C0
E1C0
E1C0
E1C0
E1C0
E1C0
E1C0
E1C0
E1C0
E1C0
E1C0
E1C0
E1C0
ENDCHAR
STARTCHAR O
ENCODING 79
SWIDTH 394 0
DWIDTH 12 0
BBX 10 22 1 0
BITMAP
7F80
FFC0
FFC0
E1C0
E1C0
E1C0
E1C0
E1C0
E1C0
E1C0
E1C0
E1C0
E1C0
E1C0
E1C0
E1C0
E1C0
E1C0
E1C0
FFC0
FFC0
7F80
ENDCHAR
STARTCHAR P
ENCODING 80
SWIDTH 384 0
DWIDTH 12 0
BBX 10 22 1 0
BITMAP
FF80
FFC0
FFC0
E1C0
E1C0
E1C0
E1C0
E1C0
E1C0
EFC0
FFC0
FF00
FC00
F000
E000
E000
E000
E000
E000
E000
E000
E000
ENDCHAR
STARTCHAR Q
ENCODING 81
SWIDTH 394 0
DWIDTH 12 0
BBX 11 24 1 -2
BITMAP
7F80
FFC0
FFC0
E1C0
E1C0
E1C0
E1C0
E1C0
E1C0
E1C0
E1C0
E1C0
E1C0
E1C0
E1C0
E1C0
E1C0
E7C0
E7C0
FFC0
FFC0
7FC0
01E0
0080
ENDCHAR
STARTCHAR R
ENCODING 82
SWIDTH 394 0
DWIDTH 12 0
BBX 11 22 1 0
BITMAP
FF80
FFC0
FFC0
E1C0
E1C0
E1C0
E1C0
E1C0
E1C0
EFC0
FFC0
FF80
FF00
FF00
EF80
E780
E780
E3C0
E3C0
E1C0
E1E0
E0E0
ENDCHAR
STARTCHAR S
ENCODING 83
SWIDTH 394 0
DWIDTH 12 0
BBX 10 22 1 0
BITMAP
7F80
FFC0
FFC0
E180
E100
E000
E040
E1C0
E7C0
FFC0
FFC0
FFC0
F9C0
E1C0
81C0
21C0
61C0
E1C0
E1C0
FFC0
FFC0
7F80
ENDCHAR
STARTCHAR T
ENCODING 84
SWIDTH 352 0
DWIDTH 11 0
BBX 9 22 1 0
BITMAP
FF80
FF80
FF80
1C00
1C00
1C00
1C00
1C00
1C00
1C00
1C00
1C00
1C00
1C00
1C00
1C00
1C00
1C00
1C00
1C00
1C00
1C00
ENDCHAR
STARTCHAR U
ENCODING 85
SWIDTH 395 0
DWIDTH 12 0
BBX 10 22 1 0
BITMAP
E1C0
E1C0
E1C0
E1C0
E1C0
E1C0
E1C0
E1C0
E1C0
E1C0
E1C0
E1C0
E1C0
E1C0
E1C0
E1C0
E1C0
E1C0
E1C0
FFC0
FFC0
7F80
ENDCHAR
STARTCHAR V
ENCODING 86
SWIDTH 362 0
DWIDTH 11 0
BBX 12 22 0 0
BITMAP
F0F0
F0F0
F0F0
70E0
70E0
71E0
79E0
79E0
79C0
39C0
3BC0
3BC0
3FC0
3FC0
3F80
1F80
1F80
1F80
1F80
1F80
0F00
0F00
ENDCHAR
STARTCHAR W
ENCODING 87
SWIDTH 590 0
DWIDTH 18 0
BBX 17 22 1 0
BITMAP
E1C380
E1C380
E1C380
E1C380
E1C380
E1C380
E1C380
E1C380
E1C380
E1C380
E1C380
E1C380
E1C380
E1C380
E1C380
E1C380
E1C380
E1C380
E1C380
FFFF80
FF7F80
7F7F00
ENDCHAR
STARTCHAR X
ENCODING 88
SWIDTH 352 0
DWIDTH 11 0
BBX 11 22 0 0
BITMAP
F1E0
71C0
7BC0
7BC0
7BC0
3B80
3F80
3F80
1F00
1F00
1F00
1F00
1F00
3F80
3F80
3F80
3B80
7BC0
7BC0
71C0
F1E0
F1E0
ENDCHAR
STARTCHAR Y
ENCODING 89
SWIDTH 394 0
DWIDTH 12 0
BBX 10 22 1 0
BITMAP
E1C0
E1C0
E1C0
E1C0
E1C0
E1C0
E1C0
E1C0
E7C0
FFC0
FFC0
FFC0
F9C0
E1C0
81C0
01C0
21C0
61C0
E1C0
FFC0
FFC0
7F80
ENDCHAR
STARTCHAR Z
ENCODING 90
SWIDTH 347 0
DWIDTH 11 0
BBX 9 22 1 0
BITMAP
FF80
FF80
FF80
0780
0780
0F00
0F00
0F00
1E00
1E00
1E00
3C00
3C00
3C00
7800
7800
7800
F000
F000
FF80
FF80
FF80
ENDCHAR
STARTCHAR bracketleft
ENCODING 91
SWIDTH 279 0
DWIDTH 9 0
BBX 6 26 2 -4
BITMAP
FC
FC
FC
E0
E0
E0
E0
E0
E0
E0
E0
E0
E0
E0
E0
E0
E0
E0
E0
E0
E0
E0
E0
FC
FC
FC
ENDCHAR
STARTCHAR backslash
ENCODING 92
SWIDTH 285 0
DWIDTH 9 0
BBX 10 24 0 -2
BITMAP
F000
F000
7000
7000
7800
3800
3800
3800
3C00
1C00
1C00
1E00
1E00
0E00
0E00
0F00
0700
0700
0700
0780
0380
0380
03C0
03C0
ENDCHAR
STARTCHAR bracketright
ENCODING 93
SWIDTH 279 0
DWIDTH 9 0
BBX 6 26 1 -4
BITMAP
FC
FC
FC
1C
1C
1C
1C
1C
1C
1C
1C
1C
1C
1C
1C
1C
1C
1C
1C
1C
1C
1C
1C
FC
FC
FC
ENDCHAR
STARTCHAR a
ENCODING 97
SWIDTH 375 0
DWIDTH 12 0
BBX 9 17 1 0
BITMAP
7F00
FF80
FF80
E380
E380
8380
0F80
3F80
FF80
FB80
E380
E380
E380
E380
FF80
FF80
7B80
ENDCHAR
STARTCHAR b
ENCODING 98
SWIDTH 375 0
DWIDTH 12 0
BBX 9 22 1 0
BITMAP
2000
6000
E000
E000
E000
EF00
FF80
FF80
E380
E380
E380
E380
E380
E380
E380
E380
E380
E380
E380
FF80
FF80
EF00
ENDCHAR
STARTCHAR c
ENCODING 99
SWIDTH 366 0
DWIDTH 11 0
BBX 9 17 1 0
BITMAP
7F00
FF80
FF80
E380
E380
E300
E000
E000
E000
E000
E080
E380
E380
E380
FF80
FF80
7F00
ENDCHAR
STARTCHAR d
ENCODING 100
SWIDTH 375 0
DWIDTH 12 0
BBX 9 22 1 0
BITMAP
0080
0180
0380
0380
0380
7B80
FF80
FF80
E380
E380
E380
E380
E380
E380
E380
E380
E380
E380
E380
FF80
FF80
7B80
ENDCHAR
STARTCHAR e
ENCODING 101
SWIDTH 375 0
DWIDTH 12 0
BBX 9 17 1 0
BITMAP
7F00
FF80
FF80
E380
E380
E380
E780
FF80
FE00
F800
E080
E380
E380
E380
FF80
FF80
7F00
ENDCHAR
STARTCHAR f
ENCODING 102
SWIDTH 308 0
DWIDTH 10 0
BBX 9 22 1 0
BITMAP
7F00
FF80
FF80
E380
E200
E000
E100
E700
FF00
FF00
FE00
F000
E000
E000
E000
E000
E000
E000
E000
E000
E000
E000
ENDCHAR
STARTCHAR g
ENCODING 103
SWIDTH 375 0
DWIDTH 12 0
BBX 9 21 1 -4
BITMAP
7B80
FF80
FF80
E380
E380
E380
E380
E380
E380
EF80
FF80
FF80
FB80
E380
8380
2380
6380
E380
FF80
FF80
7F00
ENDCHAR
STARTCHAR h
ENCODING 104
SWIDTH 375 0
DWIDTH 12 0
BBX 9 22 1 0
BITMAP
2000
6000
E000
E000
E000
EF00
FF80
FF80
E380
E380
E380
E380
E380
E380
E380
E380
E380
E380
E380
E380
E380
E380
ENDCHAR
STARTCHAR i
ENCODING 105
SWIDTH 185 0
DWIDTH 6 0
BBX 3 22 1 0
BITMAP
20
60
E0
C0
80
20
60
E0
E0
E0
E0
E0
E0
E0
E0
E0
E0
E0
E0
E0
E0
E0
ENDCHAR
STARTCHAR j
ENCODING 106
SWIDTH 189 0
DWIDTH 6 0
BBX 5 26 -1 -4
BITMAP
08
18
38
30
20
08
18
38
38
38
38
38
38
38
38
38
38
38
38
38
38
38
38
F8
F8
F0
ENDCHAR
STARTCHAR k
ENCODING 107
SWIDTH 355 0
DWIDTH 11 0
BBX 10 22 1 0
BITMAP
2000
6000
E000
E000
E000
E3C0
E780
E700
EF00
EE00
FE00
FC00
FC00
FC00
FE00
FE00
EE00
EF00
E700
E780
E380
E3C0
ENDCHAR
STARTCHAR l
ENCODING 108
SWIDTH 185 0
DWIDTH 6 0
BBX 3 22 1 0
BITMAP
20
E0
E0
E0
E0
E0
E0
E0
E0
E0
E0
E0
E0
E0
E0
E0
E0
E0
E0
E0
E0
E0
ENDCHAR
STARTCHAR m
ENCODING 109
SWIDTH 550 0
DWIDTH 17 0
BBX 15 17 1 0
BITMAP
EF3C
FFFE
FFFE
E38E
E38E
E38E
E38E
E38E
E38E
E38E
E38E
E38E
E38E
E38E
E38E
E38E
E38E
ENDCHAR
STARTCHAR n
ENCODING 110
SWIDTH 375 0
DWIDTH 12 0
BBX 9 17 1 0
BITMAP
EF00
FF80
FF80
E380
E380
E380
E380
E380
E380
E380
E380
E380
E380
E380
E380
E380
E380
ENDCHAR
STARTCHAR o
ENCODING 111
SWIDTH 375 0
DWIDTH 12 0
BBX 9 17 1 0
BITMAP
7F00
FF80
FF80
E380
E380
E380
E380
E380
E380
E380
E380
E380
E380
E380
FF80
FF80
7F00
ENDCHAR
STARTCHAR p
ENCODING 112
SWIDTH 375 0
DWIDTH 12 0
BBX 9 21 1 -4
BITMAP
EF00
FF80
FF80
E380
E380
E380
E380
E380
E380
E380
E380
E380
E380
E380
FF80
FF80
EF00
E000
E000
E000
E000
ENDCHAR
STARTCHAR q
ENCODING 113
SWIDTH 375 0
DWIDTH 12 0
BBX 9 21 1 -4
BITMAP
7B80
FF80
FF80
E380
E380
E380
E380
E380
E380
E380
E380
E380
E380
E380
FF80
FF80
7B80
0380
0380
0380
0380
ENDCHAR
STARTCHAR r
ENCODING 114
SWIDTH 316 0
DWIDTH 10 0
BBX 9 17 1 0
BITMAP
EF00
FF80
FF80
E380
E380
E200
E000
E000
E000
E000
E000
E000
E000
E000
E000
E000
E000
ENDCHAR
STARTCHAR s
ENCODING 115
SWIDTH 375 0
DWIDTH 12 0
BBX 9 17 1 0
BITMAP
7F00
FF80
FF80
E300
E280
E380
E780
FF80
FF80
FF80
E380
8380
2380
6380
FF80
FF80
7F00
ENDCHAR
STARTCHAR t
ENCODING 116
SWIDTH 277 0
DWIDTH 9 0
BBX 8 21 0 0
BITMAP
08
18
38
39
3F
3F
3F
FC
F8
F8
B8
38
38
38
38
38
38
38
3F
3F
1F
ENDCHAR
STARTCHAR u
ENCODING 117
SWIDTH 375 0
DWIDTH 12 0
BBX 9 17 1 0
BITMAP
E380
E380
E380
E380
E380
E380
E380
E380
E380
E380
E380
E380
E380
E380
FF80
FF80
7B80
ENDCHAR
STARTCHAR v
ENCODING 118
SWIDTH 316 0
DWIDTH 10 0
BBX 10 17 0 0
BITMAP
E1C0
E3C0
F3C0
7380
7380
7380
7380
7380
7700
3F00
3F00
3F00
3F00
3F00
3E00
1E00
1E00
ENDCHAR
STARTCHAR w
ENCODING 119
SWIDTH 550 0
DWIDTH 17 0
BBX 15 17 1 0
BITMAP
E38E
E38E
E38E
E38E
E38E
E38E
E38E
E38E
E38E
E38E
E38E
E38E
E38E
E38E
FFFE
FFFE
7EFC
ENDCHAR
STARTCHAR x
ENCODING 120
SWIDTH 335 0
DWIDTH 10 0
BBX 11 17 0 0
BITMAP
F1E0
71C0
7BC0
3B80
3F80
3F00
1F00
1F00
1E00
1F00
1F00
3F80
3B80
7BC0
7BC0
71C0
F1E0
ENDCHAR
STARTCHAR y
ENCODING 121
SWIDTH 375 0
DWIDTH 12 0
BBX 9 21 1 -4
BITMAP
E380
E380
E380
E380
E380
E380
E380
E380
E380
EF80
FF80
FF80
FB80
E380
8380
2380
6380
E380
FF80
FF80
7F00
ENDCHAR
STARTCHAR z
ENCODING 122
SWIDTH 308 0
DWIDTH 10 0
BBX 8 17 1 0
BITMAP
FF
FF
FF
0F
0E
1E
1E
1C
3C
38
78
78
70
F0
FF
FF
FF
ENDCHAR
STARTCHAR .notdef
ENCODING -1
SWIDTH 600 0
DWIDTH 19 0
BBX 16 27 2 -5
BITMAP
FFFF
FFFF
C003
C003
C003
C003
C003
C003
C003
C003
C003
C003
C003
C003
C003
C003
C003
C003
C003
C003
C003
C003
C003
C003
C003
FFFF
FFFF
ENDCHAR
STARTCHAR glyph1
ENCODING -1
SWIDTH 0 0
DWIDTH 0 0
BBX 1 1 0 0
BITMAP
00
ENDCHAR
STARTCHAR glyph2
ENCODING -1
SWIDTH 250 0
DWIDTH 8 0
BBX 1 1 0 0
BITMAP
00
ENDCHAR
ENDFONT
