STARTFONT 2.1
FONT -FontForge-GFS Didot-Book-R-Normal--25-240-75-75-P-150-ISO10646-1
SIZE 24 75 75
FONTBOUNDINGBOX 21 27 0 -6
COMMENT "Generated by fontforge, http://fontforge.sourceforge.net"
COMMENT "Copyright (c) Takis Katsoulidis and George D. Matthiopoulos, 2001. All rights reserved."
STARTPROPERTIES 37
FOUNDRY "FontForge"
FAMILY_NAME "GFS Didot"
WEIGHT_NAME "Book"
SLANT "R"
SETWIDTH_NAME "Normal"
ADD_STYLE_NAME ""
PIXEL_SIZE 25
POINT_SIZE 240
RESOLUTION_X 75
RESOLUTION_Y 75
SPACING "P"
AVERAGE_WIDTH 150
CHARSET_REGISTRY "ISO10646"
CHARSET_ENCODING "1"
FONTNAME_REGISTRY ""
CHARSET_COLLECTIONS "ISO10646-1"
FONT_NAME "GFSDidot-Regular"
FACE_NAME "GFS Didot Regular"
COPYRIGHT "Copyright (c) Takis Katsoulidis and George D. Matthiopoulos, 2001. All rights reserved."
FONT_VERSION "1.0"
FONT_ASCENT 20
FONT_DESCENT 5
UNDERLINE_POSITION -8
UNDERLINE_THICKNESS 1
RAW_ASCENT 800
RAW_DESCENT 200
RELATIVE_WEIGHT 40
RELATIVE_SETWIDTH 50
SUPERSCRIPT_X 0
SUPERSCRIPT_Y 11
SUPERSCRIPT_SIZE 16
SUBSCRIPT_X 0
SUBSCRIPT_Y 3
SUBSCRIPT_SIZE 16
FIGURE_WIDTH -1
AVG_LOWERCASE_WIDTH 133
AVG_UPPERCASE_WIDTH 172
ENDPROPERTIES
CHARS 61
STARTCHAR Alpha
ENCODING 913
SWIDTH 748 0
DWIDTH 19 0
BBX 17 18 1 0
BITMAP
008000
00C000
00C000
01E000
01E000
036000
027000
027000
043000
043800
0C3800
0FF800
081C00
101C00
100C00
100E00
200E00
F81F80
ENDCHAR
STARTCHAR Beta
ENCODING 914
SWIDTH 714 0
DWIDTH 18 0
BBX 15 17 1 0
BITMAP
FFF0
1818
181C
180C
180C
181C
1818
1830
1FF0
181C
180C
180E
180E
180E
180E
181C
FFF0
ENDCHAR
STARTCHAR Gamma
ENCODING 915
SWIDTH 635 0
DWIDTH 16 0
BBX 14 17 1 0
BITMAP
FFFC
180C
1804
1804
1804
1800
1800
1800
1800
1800
1800
1800
1800
1800
1800
1800
FE00
ENDCHAR
STARTCHAR uni0394
ENCODING 916
SWIDTH 615 0
DWIDTH 15 0
BBX 14 18 1 0
BITMAP
0100
0300
0300
0780
0580
0580
09C0
08C0
18C0
10E0
1060
2060
2070
2030
4030
4038
FFF8
FFFC
ENDCHAR
STARTCHAR Epsilon
ENCODING 917
SWIDTH 692 0
DWIDTH 17 0
BBX 15 17 1 0
BITMAP
FFFC
380C
3804
3804
3804
3820
3820
3860
3FE0
3860
3820
3822
3802
3802
3806
380E
FFFE
ENDCHAR
STARTCHAR Zeta
ENCODING 918
SWIDTH 659 0
DWIDTH 16 0
BBX 15 17 1 0
BITMAP
7FFC
6038
4070
4060
80E0
01C0
0180
0380
0700
0600
0E00
1C02
1C02
3806
7004
701C
FFFC
ENDCHAR
STARTCHAR Eta
ENCODING 919
SWIDTH 758 0
DWIDTH 19 0
BBX 17 17 1 0
BITMAP
FE3F80
380E00
380E00
380E00
380E00
380E00
380E00
3FFE00
380E00
380E00
380E00
380E00
380E00
380E00
380E00
380E00
FE3F80
ENDCHAR
STARTCHAR Theta
ENCODING 920
SWIDTH 727 0
DWIDTH 18 0
BBX 16 18 1 0
BITMAP
03C0
0C30
1818
300C
700E
7006
6426
6427
E7E7
E7E7
E427
6426
6006
700E
300C
181C
0818
07E0
ENDCHAR
STARTCHAR Iota
ENCODING 921
SWIDTH 380 0
DWIDTH 10 0
BBX 7 17 1 0
BITMAP
FE
18
18
18
18
18
18
18
18
18
18
18
18
18
18
18
FE
ENDCHAR
STARTCHAR Kappa
ENCODING 922
SWIDTH 773 0
DWIDTH 19 0
BBX 18 17 1 0
BITMAP
FE3F00
380C00
381000
381000
382000
384000
38C000
39E000
3A6000
3C7000
383800
383800
381C00
381C00
380E00
380E00
FE1FC0
ENDCHAR
STARTCHAR Lambda
ENCODING 923
SWIDTH 740 0
DWIDTH 19 0
BBX 17 18 1 0
BITMAP
008000
00C000
01C000
01C000
01E000
02E000
026000
047000
047000
043000
083800
081800
081800
101C00
100C00
300E00
200E00
F81F80
ENDCHAR
STARTCHAR Mu
ENCODING 924
SWIDTH 911 0
DWIDTH 23 0
BBX 20 17 1 0
BITMAP
7C01F0
1C01C0
1E02C0
1E02C0
1604C0
1704C0
1704C0
1308C0
1388C0
1190C0
1190C0
11D0C0
10E0C0
10E0C0
10C0C0
1040C0
FC47F0
ENDCHAR
STARTCHAR Nu
ENCODING 925
SWIDTH 733 0
DWIDTH 18 0
BBX 17 17 1 0
BITMAP
FC1F80
3C0600
2E0400
270400
270400
238400
21C400
21C400
20E400
207400
207400
203C00
201C00
201C00
200C00
200400
FC0400
ENDCHAR
STARTCHAR Xi
ENCODING 926
SWIDTH 718 0
DWIDTH 18 0
BBX 14 17 2 0
BITMAP
FFFC
FFFC
8004
8004
0000
1020
1020
1FE0
1FE0
1020
1020
0000
8004
8004
8004
FFFC
FFFC
ENDCHAR
STARTCHAR Omicron
ENCODING 927
SWIDTH 718 0
DWIDTH 18 0
BBX 16 18 1 0
BITMAP
03C0
0C30
181C
300C
700E
7006
6006
6007
E007
E007
6007
6006
7006
700E
300C
181C
0C18
07E0
ENDCHAR
STARTCHAR Pi
ENCODING 928
SWIDTH 727 0
DWIDTH 18 0
BBX 16 17 1 0
BITMAP
FFFF
380C
380C
380C
380C
380C
380C
380C
380C
380C
380C
380C
380C
380C
380C
380C
FE7F
ENDCHAR
STARTCHAR Rho
ENCODING 929
SWIDTH 605 0
DWIDTH 15 0
BBX 14 17 1 0
BITMAP
FFE0
3030
3018
301C
301C
301C
3018
3038
30E0
3B00
3000
3000
3000
3000
3000
3000
FE00
ENDCHAR
STARTCHAR Sigma
ENCODING 931
SWIDTH 701 0
DWIDTH 18 0
BBX 15 17 1 0
BITMAP
FFFC
780C
3804
1C06
0E02
0700
0380
03C0
0180
0100
0200
0402
0802
1806
300E
7FFE
FFFE
ENDCHAR
STARTCHAR Tau
ENCODING 932
SWIDTH 669 0
DWIDTH 17 0
BBX 15 17 1 0
BITMAP
FFFE
C386
8382
8382
8382
0380
0380
0380
0380
0380
0380
0380
0380
0380
0380
0380
0FE0
ENDCHAR
STARTCHAR Upsilon
ENCODING 933
SWIDTH 618 0
DWIDTH 15 0
BBX 16 18 0 0
BITMAP
C00C
3836
0C47
0646
0642
0380
0380
0380
0380
0380
0380
0380
0380
0380
0380
0380
0380
0FE0
ENDCHAR
STARTCHAR Phi
ENCODING 934
SWIDTH 733 0
DWIDTH 18 0
BBX 16 17 1 0
BITMAP
0FE0
0180
07F0
199C
6186
E187
E187
E187
E187
E187
E187
6186
718E
1DB8
03C0
0180
0FE0
ENDCHAR
STARTCHAR Chi
ENCODING 935
SWIDTH 744 0
DWIDTH 19 0
BBX 19 17 0 0
BITMAP
7E0FC0
1C0600
0E0400
070800
071000
039000
01E000
01C000
00E000
00F000
013800
023800
041C00
040E00
080F00
300700
FC0FE0
ENDCHAR
STARTCHAR Psi
ENCODING 936
SWIDTH 858 0
DWIDTH 21 0
BBX 20 18 1 0
BITMAP
000040
E3F8B0
30E130
30E170
30E120
30E100
30E100
30E100
30E100
38E200
1CE400
07F800
00E000
00E000
00E000
00E000
00E000
03F800
ENDCHAR
STARTCHAR uni03A9
ENCODING 937
SWIDTH 754 0
DWIDTH 19 0
BBX 16 18 1 0
BITMAP
01C0
0E38
180C
300E
7007
6007
E003
E003
E003
6003
6003
7007
3006
180C
8C19
8221
FE3F
FE3F
ENDCHAR
STARTCHAR Iotadieresis
ENCODING 938
SWIDTH 380 0
DWIDTH 10 0
BBX 7 21 1 0
BITMAP
C6
E6
42
00
FE
18
18
18
18
18
18
18
18
18
18
18
18
18
18
18
FE
ENDCHAR
STARTCHAR Upsilondieresis
ENCODING 939
SWIDTH 618 0
DWIDTH 15 0
BBX 16 21 0 0
BITMAP
0C60
0C60
0000
C00C
3836
0C47
0646
0642
0380
0380
0380
0380
0380
0380
0380
0380
0380
0380
0380
0380
0FE0
ENDCHAR
STARTCHAR alphatonos
ENCODING 940
SWIDTH 627 0
DWIDTH 16 0
BBX 14 18 1 0
BITMAP
00C0
01C0
0180
0300
0200
0400
0404
3F18
31B8
60B0
6070
C060
C060
C0C0
C0E0
41A4
633C
3E1C
ENDCHAR
STARTCHAR epsilontonos
ENCODING 941
SWIDTH 479 0
DWIDTH 12 0
BBX 10 18 1 0
BITMAP
0180
0300
0300
0600
0C00
0000
0800
7FC0
7F80
C000
4000
7C00
7E00
8000
8000
C040
FFC0
7F00
ENDCHAR
STARTCHAR etatonos
ENCODING 942
SWIDTH 529 0
DWIDTH 13 0
BBX 11 24 1 -6
BITMAP
00C0
0180
0100
0300
0600
0000
4080
E3E0
F720
1620
1C20
0C20
1820
1820
1820
1820
1060
3060
0060
0060
0060
0060
0060
0060
ENDCHAR
STARTCHAR iotatonos
ENCODING 943
SWIDTH 308 0
DWIDTH 8 0
BBX 5 18 2 0
BITMAP
10
30
20
40
80
00
C0
C0
C0
C0
C0
80
80
80
80
90
B8
F0
ENDCHAR
STARTCHAR upsilondieresistonos
ENCODING 944
SWIDTH 563 0
DWIDTH 14 0
BBX 12 18 1 0
BITMAP
0300
0600
6680
64C0
2880
0000
2080
E0C0
6060
6060
6030
6030
E030
C070
C070
6060
60C0
3F80
ENDCHAR
STARTCHAR alpha
ENCODING 945
SWIDTH 627 0
DWIDTH 16 0
BBX 14 12 1 0
BITMAP
0E04
3F18
70B8
60B0
E070
C060
C060
C0C0
C0E0
41A4
633C
3E1C
ENDCHAR
STARTCHAR beta
ENCODING 946
SWIDTH 536 0
DWIDTH 13 0
BBX 12 24 1 -6
BITMAP
0700
3880
7040
6040
6040
60C0
41C0
4F80
4FC0
4060
4020
4030
4030
4070
4060
60E0
51C0
4F80
4000
4000
E000
E000
E000
6000
ENDCHAR
STARTCHAR gamma
ENCODING 947
SWIDTH 538 0
DWIDTH 13 0
BBX 13 18 0 -6
BITMAP
2018
F838
F878
0C60
0CC0
0480
0680
0300
0300
0300
0300
0300
0300
0300
0300
0300
0300
0300
ENDCHAR
STARTCHAR delta
ENCODING 948
SWIDTH 561 0
DWIDTH 14 0
BBX 12 18 1 0
BITMAP
1C00
2780
21E0
30F0
1C70
0600
0300
1FC0
30E0
6060
E070
C070
C070
C070
E060
60E0
60C0
1F80
ENDCHAR
STARTCHAR epsilon
ENCODING 949
SWIDTH 479 0
DWIDTH 12 0
BBX 10 12 1 0
BITMAP
1F00
7FC0
7380
4000
4000
3E00
7C00
8000
8000
E0C0
7FC0
3F00
ENDCHAR
STARTCHAR zeta
ENCODING 950
SWIDTH 441 0
DWIDTH 11 0
BBX 10 24 1 -6
BITMAP
C000
C1C0
C380
7E00
0C00
1800
1000
2000
6000
4000
4000
C000
C000
C000
C000
E000
7E00
3F80
03C0
00C0
0040
0080
0F00
0E00
ENDCHAR
STARTCHAR eta
ENCODING 951
SWIDTH 529 0
DWIDTH 13 0
BBX 11 18 1 -6
BITMAP
4080
E3E0
F720
1620
1C20
0C20
1820
1820
1820
1820
1060
3060
0060
0060
0060
0060
0060
0060
ENDCHAR
STARTCHAR theta
ENCODING 952
SWIDTH 520 0
DWIDTH 13 0
BBX 11 18 1 0
BITMAP
0E00
1100
3080
60C0
60C0
60C0
60C0
60E0
FF60
E060
E0E0
60E0
60C0
60C0
60C0
2080
3180
1F00
ENDCHAR
STARTCHAR iota
ENCODING 953
SWIDTH 308 0
DWIDTH 8 0
BBX 5 12 2 0
BITMAP
E0
C0
C0
C0
C0
C0
80
80
90
98
F8
70
ENDCHAR
STARTCHAR kappa
ENCODING 954
SWIDTH 551 0
DWIDTH 14 0
BBX 12 12 1 0
BITMAP
6060
F060
F0E0
11C0
1180
1300
1700
1D00
3900
70A0
E0F0
60F0
ENDCHAR
STARTCHAR lambda
ENCODING 955
SWIDTH 505 0
DWIDTH 13 0
BBX 12 18 1 0
BITMAP
E000
F000
7800
0400
0400
0400
0600
0600
0E00
0F00
1900
1900
3900
3180
7080
60C0
E0E0
C070
ENDCHAR
STARTCHAR uni03BC
ENCODING 956
SWIDTH 602 0
DWIDTH 15 0
BBX 13 18 1 -6
BITMAP
6040
6060
6060
6060
6060
60E0
40C0
40C0
40C0
61C8
7378
5E38
4000
C000
E000
6000
7000
2000
ENDCHAR
STARTCHAR nu
ENCODING 957
SWIDTH 465 0
DWIDTH 12 0
BBX 11 13 0 -1
BITMAP
4040
E040
7060
3060
3860
1860
08C0
08C0
0980
0B00
0F00
0C00
0800
ENDCHAR
STARTCHAR xi
ENCODING 958
SWIDTH 488 0
DWIDTH 12 0
BBX 11 24 1 -6
BITMAP
6040
63E0
67C0
1E00
1000
2000
6000
6000
6780
3F80
3600
6000
4000
C000
C000
6000
7FC0
3FE0
0060
0020
0020
0220
07C0
0380
ENDCHAR
STARTCHAR omicron
ENCODING 959
SWIDTH 536 0
DWIDTH 13 0
BBX 12 12 1 0
BITMAP
0F00
38C0
7060
6060
E070
E070
C070
C070
C060
60E0
20C0
1F80
ENDCHAR
STARTCHAR pi
ENCODING 960
SWIDTH 649 0
DWIDTH 16 0
BBX 14 11 1 0
BITMAP
7FFC
FFFC
8840
0840
0840
0840
1840
1840
1864
383C
3038
ENDCHAR
STARTCHAR rho
ENCODING 961
SWIDTH 544 0
DWIDTH 14 0
BBX 12 18 1 -6
BITMAP
0700
18C0
3060
6060
6030
E030
E030
C070
E070
E060
A0C0
9B80
C400
C000
E000
7000
7000
3000
ENDCHAR
STARTCHAR sigma1
ENCODING 962
SWIDTH 450 0
DWIDTH 11 0
BBX 10 18 1 -6
BITMAP
0080
0FC0
3FC0
7000
4000
C000
8000
8000
8000
C000
7F00
3F80
01C0
0040
0040
0080
0F80
0E00
ENDCHAR
STARTCHAR sigma
ENCODING 963
SWIDTH 567 0
DWIDTH 14 0
BBX 13 12 1 0
BITMAP
03F8
1FF8
3C80
7060
E060
C070
C070
C070
C060
60E0
61C0
1F80
ENDCHAR
STARTCHAR tau
ENCODING 964
SWIDTH 469 0
DWIDTH 12 0
BBX 12 12 0 0
BITMAP
0FF0
3FF0
7BF0
8200
0200
0600
0400
0400
0600
0640
03C0
0380
ENDCHAR
STARTCHAR upsilon
ENCODING 965
SWIDTH 563 0
DWIDTH 14 0
BBX 12 12 1 0
BITMAP
6080
E040
6060
6060
6030
6030
E030
C070
C060
60E0
20C0
1F80
ENDCHAR
STARTCHAR phi
ENCODING 966
SWIDTH 665 0
DWIDTH 17 0
BBX 15 18 1 -6
BITMAP
18F0
3998
710C
610E
C30E
C30E
C20E
C20E
C30C
631C
7338
1FE0
0300
0300
0300
0300
0300
0300
ENDCHAR
STARTCHAR chi
ENCODING 967
SWIDTH 483 0
DWIDTH 12 0
BBX 13 18 0 -6
BITMAP
6010
F060
F860
08C0
08C0
0580
0580
0300
0300
0600
0F00
0D00
1D00
1980
3880
30F8
6078
6030
ENDCHAR
STARTCHAR psi
ENCODING 968
SWIDTH 694 0
DWIDTH 17 0
BBX 15 24 1 -6
BITMAP
0100
0380
0380
0380
0180
0180
0188
710C
6104
E106
E106
C106
C106
C10E
610C
611C
3118
1D70
0380
0100
0300
0300
0380
0300
ENDCHAR
STARTCHAR omega
ENCODING 969
SWIDTH 730 0
DWIDTH 18 0
BBX 16 12 1 0
BITMAP
1810
380C
700E
7006
6003
E183
C183
C183
4183
6187
638E
3E7C
ENDCHAR
STARTCHAR iotadieresis
ENCODING 970
SWIDTH 308 0
DWIDTH 8 0
BBX 7 16 0 0
BITMAP
C4
C6
C6
00
30
30
30
30
30
30
20
20
20
26
2E
3C
ENDCHAR
STARTCHAR upsilondieresis
ENCODING 971
SWIDTH 563 0
DWIDTH 14 0
BBX 12 16 1 0
BITMAP
1180
3180
3180
0000
2080
E0C0
6060
6060
6030
6030
E030
C070
C070
6060
60C0
3F80
ENDCHAR
STARTCHAR omicrontonos
ENCODING 972
SWIDTH 536 0
DWIDTH 13 0
BBX 12 19 1 -1
BITMAP
0080
0180
0180
0300
0200
0400
0F00
38C0
7060
6060
E070
E070
C070
C070
C060
60E0
60C0
1B80
0400
ENDCHAR
STARTCHAR upsilontonos
ENCODING 973
SWIDTH 563 0
DWIDTH 14 0
BBX 12 18 1 0
BITMAP
0080
0180
0180
0300
0200
0400
2080
E0C0
6060
6060
6030
6030
E030
C070
C070
6060
60C0
3F80
ENDCHAR
STARTCHAR omegatonos
ENCODING 974
SWIDTH 730 0
DWIDTH 18 0
BBX 16 18 1 0
BITMAP
0030
0030
0060
0040
0080
0000
0810
3818
700C
7006
6006
C183
C183
C183
C183
6106
618E
3E7C
ENDCHAR
ENDFONT
